<svg width="22" height="22" viewBox="0 0 22 22" fill="none" xmlns="http://www.w3.org/2000/svg">
<path d="M15.6757 9.41878C15.8009 9.28911 15.8702 9.11545 15.8687 8.93519C15.8671 8.75493 15.7948 8.58249 15.6673 8.45503C15.5399 8.32756 15.3674 8.25525 15.1872 8.25369C15.0069 8.25212 14.8333 8.32142 14.7036 8.44665L9.68484 13.4654L7.41609 11.1967C7.28643 11.0714 7.11276 11.0021 6.9325 11.0037C6.75224 11.0053 6.57981 11.0776 6.45234 11.205C6.32487 11.3325 6.25257 11.5049 6.251 11.6852C6.24944 11.8654 6.31873 12.0391 6.44397 12.1688L9.19397 14.9188C9.32289 15.0477 9.49773 15.1201 9.68003 15.1201C9.86233 15.1201 10.0372 15.0477 10.1661 14.9188L15.6661 9.41878H15.6757Z" fill="black"/>
</svg>
