<svg width="14" height="14" viewBox="0 0 14 14" fill="none" xmlns="http://www.w3.org/2000/svg">
<path d="M6.22222 0.777778C6.22222 0.571498 6.30417 0.373667 6.45003 0.227806C6.59589 0.0819441 6.79372 0 7 0C7.20628 0 7.40411 0.0819441 7.54997 0.227806C7.69583 0.373667 7.77778 0.571498 7.77778 0.777778V6.22222H13.2222C13.4285 6.22222 13.6263 6.30417 13.7722 6.45003C13.9181 6.59589 14 6.79372 14 7C14 7.20628 13.9181 7.40411 13.7722 7.54997C13.6263 7.69583 13.4285 7.77778 13.2222 7.77778H7.77778V13.2222C7.77778 13.4285 7.69583 13.6263 7.54997 13.7722C7.40411 13.9181 7.20628 14 7 14C6.79372 14 6.59589 13.9181 6.45003 13.7722C6.30417 13.6263 6.22222 13.4285 6.22222 13.2222V7.77778H0.777778C0.571498 7.77778 0.373667 7.69583 0.227806 7.54997C0.0819441 7.40411 0 7.20628 0 7C0 6.79372 0.0819441 6.59589 0.227806 6.45003C0.373667 6.30417 0.571498 6.22222 0.777778 6.22222H6.22222V0.777778Z" fill="#A5A5A5"/>
</svg>
