<svg width="22" height="22" viewBox="0 0 22 22" fill="none" xmlns="http://www.w3.org/2000/svg">
<path d="M18.1498 2.20001C18.2957 2.20001 18.4356 2.25796 18.5387 2.3611C18.6418 2.46425 18.6998 2.60414 18.6998 2.75001V3.30001H19.2498C19.3957 3.30001 19.5356 3.35796 19.6387 3.4611C19.7418 3.56425 19.7998 3.70414 19.7998 3.85001C19.7998 3.99588 19.7418 4.13578 19.6387 4.23892C19.5356 4.34207 19.3957 4.40001 19.2498 4.40001H18.6998V4.95001C18.6998 5.09588 18.6418 5.23578 18.5387 5.33892C18.4356 5.44207 18.2957 5.50001 18.1498 5.50001C18.0039 5.50001 17.864 5.44207 17.7609 5.33892C17.6577 5.23578 17.5998 5.09588 17.5998 4.95001V4.40001H17.0498C16.9039 4.40001 16.764 4.34207 16.6609 4.23892C16.5577 4.13578 16.4998 3.99588 16.4998 3.85001C16.4998 3.70414 16.5577 3.56425 16.6609 3.4611C16.764 3.35796 16.9039 3.30001 17.0498 3.30001H17.5998V2.75001C17.5998 2.60414 17.6577 2.46425 17.7609 2.3611C17.864 2.25796 18.0039 2.20001 18.1498 2.20001ZM7.1498 6.60001C7.29567 6.60001 7.43556 6.54207 7.53871 6.43892C7.64185 6.33578 7.6998 6.19588 7.6998 6.05001C7.6998 5.90414 7.64185 5.76425 7.53871 5.6611C7.43556 5.55796 7.29567 5.50001 7.1498 5.50001H6.5998V4.95001C6.5998 4.80414 6.54185 4.66425 6.43871 4.5611C6.33556 4.45796 6.19567 4.40001 6.0498 4.40001C5.90393 4.40001 5.76403 4.45796 5.66089 4.5611C5.55774 4.66425 5.4998 4.80414 5.4998 4.95001V5.50001H4.9498C4.80393 5.50001 4.66403 5.55796 4.56089 5.6611C4.45774 5.76425 4.3998 5.90414 4.3998 6.05001C4.3998 6.19588 4.45774 6.33578 4.56089 6.43892C4.66403 6.54207 4.80393 6.60001 4.9498 6.60001H5.4998V7.15001C5.4998 7.29588 5.55774 7.43578 5.66089 7.53892C5.76403 7.64207 5.90393 7.70001 6.0498 7.70001C6.19567 7.70001 6.33556 7.64207 6.43871 7.53892C6.54185 7.43578 6.5998 7.29588 6.5998 7.15001V6.60001H7.1498ZM17.0498 16.5C17.1957 16.5 17.3356 16.4421 17.4387 16.3389C17.5418 16.2358 17.5998 16.0959 17.5998 15.95C17.5998 15.8041 17.5418 15.6642 17.4387 15.5611C17.3356 15.458 17.1957 15.4 17.0498 15.4H16.4998V14.85C16.4998 14.7041 16.4418 14.5642 16.3387 14.4611C16.2356 14.358 16.0957 14.3 15.9498 14.3C15.8039 14.3 15.664 14.358 15.5609 14.4611C15.4577 14.5642 15.3998 14.7041 15.3998 14.85V15.4H14.8498C14.7039 15.4 14.564 15.458 14.4609 15.5611C14.3577 15.6642 14.2998 15.8041 14.2998 15.95C14.2998 16.0959 14.3577 16.2358 14.4609 16.3389C14.564 16.4421 14.7039 16.5 14.8498 16.5H15.3998V17.05C15.3998 17.1959 15.4577 17.3358 15.5609 17.4389C15.664 17.5421 15.8039 17.6 15.9498 17.6C16.0957 17.6 16.2356 17.5421 16.3387 17.4389C16.4418 17.3358 16.4998 17.1959 16.4998 17.05V16.5H17.0498ZM14.7772 7.22261C14.5817 7.02708 14.3496 6.87197 14.0941 6.76614C13.8387 6.66032 13.5649 6.60585 13.2883 6.60585C13.0118 6.60585 12.738 6.66032 12.4826 6.76614C12.2271 6.87197 11.995 7.02708 11.7995 7.22261L2.8169 16.2052C2.62138 16.4007 2.46628 16.6328 2.36047 16.8883C2.25466 17.1438 2.2002 17.4176 2.2002 17.6941C2.2002 17.9706 2.25466 18.2444 2.36047 18.4998C2.46628 18.7553 2.62138 18.9874 2.8169 19.1829C3.01242 19.3784 3.24453 19.5335 3.49999 19.6393C3.75544 19.7452 4.02924 19.7996 4.30575 19.7996C4.58225 19.7996 4.85605 19.7452 5.11151 19.6393C5.36696 19.5335 5.59908 19.3784 5.7946 19.1829L14.7772 10.2003C14.9727 10.0048 15.1278 9.77269 15.2337 9.51723C15.3395 9.26177 15.394 8.98797 15.394 8.71146C15.394 8.43495 15.3395 8.16115 15.2337 7.90569C15.1278 7.65023 14.9727 7.41812 14.7772 7.22261ZM12.5772 8.00031C12.7658 7.8117 13.0216 7.70574 13.2883 7.70574C13.5551 7.70574 13.8109 7.8117 13.9995 8.00031C14.1881 8.18892 14.2941 8.44473 14.2941 8.71146C14.2941 8.97819 14.1881 9.234 13.9995 9.42261L13.4748 9.94731L12.0525 8.52501L12.5772 8.00031ZM11.2748 9.30271L12.6971 10.725L5.0169 18.4052C4.82767 18.5901 4.57318 18.693 4.3086 18.6916C4.04403 18.6901 3.79069 18.5844 3.60353 18.3974C3.41637 18.2104 3.31048 17.9571 3.3088 17.6925C3.30713 17.4279 3.40982 17.1734 3.5946 16.984L11.2748 9.30271Z" fill="black"/>
</svg>
